# xmcd CD database file
#
# Track frame offsets:
#	150
#	11567
#	25725
#	35555
#	47587
#	61122
#	70907
#	96975
#	111122
#	132260
#	144950
#	181912
#	198025
#	219902
#	243715
#	258320
#
# Disc length: 3657 seconds
#
# Revision: 7
# Processed by: cddbd v1.5.2PL0 Copyright (c) Steve Scherf et al.
# Submitted via: CDex 1.72
#
DISCID=d80e4710
DTITLE=Simone, Nina (USA-67-Anthology-jzz) - Anthology  - D2
DYEAR=1967
DGENRE=Jazz
TTITLE0=I Want a Little Sugar in My Bowl
TTITLE1=I Wish I Knew How It Felt to Be Free
TTITLE2=The Glory of Love
TTITLE3=To Love Somebody
TTITLE4=Do What You Gotta Do
TTITLE5=Ain't Got No-I Got Life
TTITLE6=Why? (The King of Love is Dead)
TTITLE7=Everyone's Gone to the Moon
TTITLE8=Revolution
TTITLE9=To Be Young, Gifted and Black
TTITLE10=Who Knows Where Time Goes
TTITLE11=Here Comes the Sun
TTITLE12=Just Like a Woman
TTITLE13=Funkier than a Mosquito's Tweeter
TTITLE14=Rich Girl
TTITLE15=A Single Woman
EXTD=YEAR: 1967
EXTT0=
EXTT1=
EXTT2=
EXTT3=
EXTT4=
EXTT5=
EXTT6=
EXTT7=
EXTT8=
EXTT9=
EXTT10=
EXTT11=
EXTT12=
EXTT13=
EXTT14=
EXTT15=
PLAYORDER=
